<?xml version="1.0" encoding="UTF-8" standalone="no"?>
<!-- Created with Inkscape (http://www.inkscape.org/) -->

<svg
   xmlns:dc="http://purl.org/dc/elements/1.1/"
   xmlns:cc="http://creativecommons.org/ns#"
   xmlns:rdf="http://www.w3.org/1999/02/22-rdf-syntax-ns#"
   xmlns:svg="http://www.w3.org/2000/svg"
   xmlns="http://www.w3.org/2000/svg"
   xmlns:sodipodi="http://sodipodi.sourceforge.net/DTD/sodipodi-0.dtd"
   xmlns:inkscape="http://www.inkscape.org/namespaces/inkscape"
   width="210mm"
   height="297mm"
   viewBox="0 0 210 297"
   version="1.1"
   id="svg4044"
   inkscape:version="0.92.2 2405546, 2018-03-11"
   sodipodi:docname="ansiblecharm.svg">
  <defs
     id="defs4038" />
  <sodipodi:namedview
     id="base"
     pagecolor="#ffffff"
     bordercolor="#666666"
     borderopacity="1.0"
     inkscape:pageopacity="0.0"
     inkscape:pageshadow="2"
     inkscape:zoom="0.505"
     inkscape:cx="388.20953"
     inkscape:cy="607.87186"
     inkscape:document-units="mm"
     inkscape:current-layer="layer2"
     showgrid="false"
     inkscape:window-width="958"
     inkscape:window-height="1178"
     inkscape:window-x="1920"
     inkscape:window-y="20"
     inkscape:window-maximized="0" />
  <metadata
     id="metadata4041">
    <rdf:RDF>
      <cc:Work
         rdf:about="">
        <dc:format>image/svg+xml</dc:format>
        <dc:type
           rdf:resource="http://purl.org/dc/dcmitype/StillImage" />
        <dc:title></dc:title>
      </cc:Work>
    </rdf:RDF>
  </metadata>
  <g
     inkscape:label="Layer 1"
     inkscape:groupmode="layer"
     id="layer1">
    <path
       inkscape:connector-curvature="0"
       style="fill:#dd4814;stroke-width:0.26458332"
       d="m 113.39286,137.49405 c -29.225344,0 -52.916664,23.68815 -52.916664,52.91349 0,29.22508 23.69132,52.91984 52.916664,52.91984 29.22403,0 52.91667,-23.69476 52.91667,-52.91984 0,-29.22508 -23.69264,-52.91349 -52.91667,-52.91349 z"
       id="path323" />
  </g>
  <g
     inkscape:groupmode="layer"
     id="layer2"
     inkscape:label="Layer 2">
    <g
       transform="matrix(0.26536376,0,0,0.25622847,125.16536,116.72325)"
       id="g119">
      <path
         id="path115"
         d="m 255.87857,127.86803 c 0,70.45514 -57.11008,127.56471 -127.56622,127.56471 -70.450124,0 -127.56622267,-57.10957 -127.56622267,-127.56471 0,-70.450122 57.11609867,-127.56622146 127.56622267,-127.56622146 70.45614,0 127.56622,57.11609946 127.56622,127.56622146"
         inkscape:connector-curvature="0"
         style="fill:#1a1918" />
      <path
         id="path117"
         d="m 130.45986,78.228885 33.0116,81.476255 -49.86345,-39.2778 z M 189.10434,178.47412 138.32577,56.27205 c -1.44952,-3.524365 -4.34807,-5.389259 -7.86591,-5.389259 -3.52436,0 -6.63386,1.864894 -8.08338,5.389259 L 66.643604,190.31241 h 19.06532 l 22.062306,-55.26527 65.83887,53.18993 c 2.64792,2.14114 4.55852,3.1095 7.0422,3.1095 4.97389,0 9.32146,-3.72879 9.32146,-9.11102 0,-0.87594 -0.3094,-2.2662 -0.86942,-3.76143 z"
         inkscape:connector-curvature="0"
         style="fill:#ffffff" />
    </g>
    <path
       inkscape:connector-curvature="0"
       style="fill:#ffffff;stroke-width:0.26458332"
       d="m 87.710816,223.12909 c -0.4498,0.45164 -1.04511,0.69771 -1.68275,0.69771 -0.63765,0 -1.23746,-0.24818 -1.68646,-0.70062 a 2.3661687,2.3661687 0 0 1 -0.6985,-1.68275 2.3865417,2.3865417 0 0 1 0.6985,-1.68672 c 0.449,-0.44847 1.04855,-0.69665 1.68646,-0.69665 0.63791,0 1.23295,0.24818 1.68275,0.69665 a 2.3669625,2.3669625 0 0 1 0.69585,1.68672 2.3669625,2.3669625 0 0 1 -0.69585,1.6854 z m 10.38436,-35.5854 c -0.23892,-0.76279 -0.58473,-1.39118 -1.02446,-1.86663 a 4.0555333,4.0555333 0 0 0 -1.58539,-1.05437 c -0.61304,-0.22754 -1.30545,-0.34316 -2.06295,-0.34316 -0.75803,0 -1.44727,0.11588 -2.04788,0.34316 -0.59954,0.22437 -1.12554,0.58208 -1.56792,1.0541 -0.43709,0.47519 -0.78396,1.10331 -1.02182,1.86637 -0.24342,0.771 -0.36618,1.70921 -0.36618,2.79876 v 27.73178 h -4.78552 v -28.15961 c 0,-1.41816 0.1905,-2.74108 0.57018,-3.92747 0.38047,-1.19063 0.97948,-2.24049 1.78117,-3.12738 0.80063,-0.88556 1.82298,-1.57903 3.03742,-2.06639 1.21232,-0.49028 2.68155,-0.73819 4.36351,-0.73819 1.68222,0 3.16362,0.24818 4.39869,0.73819 1.23825,0.48762 2.275424,1.1811 3.076584,2.06639 0.79692,0.88715 1.40388,1.93517 1.79837,3.12738 0.38814,1.18665 0.59002,2.50957 0.59002,3.92774 v 3.82402 h -4.785254 v -3.39619 c -0.005,-1.08612 -0.127,-2.02565 -0.36883,-2.79876 z m 19.981344,19.43867 c 0,1.42611 -0.19844,2.74902 -0.59267,3.93356 -0.39158,1.19063 -0.99483,2.24103 -1.79652,3.12738 -0.80169,0.88265 -1.83674,1.57956 -3.07446,2.06692 -1.2364,0.48684 -2.71912,0.73475 -4.39843,0.73475 -1.68169,0 -3.14696,-0.24818 -4.36087,-0.73501 -1.21761,-0.48789 -2.23837,-1.18428 -3.04323,-2.06693 -0.79852,-0.88688 -1.396214,-1.93675 -1.777474,-3.12737 -0.37889,-1.18639 -0.57309,-2.50931 -0.57309,-3.93356 v -12.09834 h 4.786314 v 11.67871 c 0,1.08426 0.12383,2.02565 0.36645,2.79453 0.24077,0.76676 0.58367,1.39303 1.02182,1.86531 a 4.1272354,4.1272354 0 0 0 1.56686,1.05728 c 0.60219,0.22754 1.29011,0.34316 2.0492,0.34316 0.75459,0 1.4515,-0.11906 2.06375,-0.3466 a 4.079875,4.079875 0 0 0 1.58221,-1.05384 c 0.44132,-0.47545 0.78713,-1.10066 1.02579,-1.86346 0.24342,-0.77311 0.36645,-1.71556 0.36645,-2.79664 V 194.8835 h 4.78631 v 12.09833 h 0.001 z m -4.77679,-15.58739 c 0,-1.31763 1.0668,-2.3839 2.38072,-2.3839 1.31366,0 2.3839,1.06627 2.3839,2.3839 0,1.31021 -1.07024,2.3786 -2.3839,2.3786 -1.31498,0 -2.38072,-1.06839 -2.38072,-2.3786 z m 14.44995,-33.78015 c -0.23865,-0.76068 -0.58473,-1.3933 -1.02393,-1.86531 a 4.0375417,4.0375417 0 0 0 -1.58274,-1.05437 c -0.61331,-0.23019 -1.30704,-0.3421 -2.06587,-0.3421 -0.75565,0 -1.44515,0.11112 -2.04734,0.33866 a 4.1121542,4.1121542 0 0 0 -1.56528,1.05728 c -0.43974,0.47228 -0.78449,1.10066 -1.02314,1.86531 -0.24342,0.77126 -0.36433,1.70762 -0.36433,2.79665 v 27.7323 h -4.7879 v -28.15431 c 0,-1.41896 0.19155,-2.74188 0.57229,-3.9296 0.381,-1.1938 0.97896,-2.24366 1.78065,-3.13055 0.79957,-0.88265 1.82297,-1.57691 3.03847,-2.06692 1.21497,-0.48683 2.6834,-0.73819 4.36192,-0.73819 1.67958,0 3.1586,0.25136 4.39658,0.73819 1.2409,0.49001 2.27489,1.18427 3.07446,2.06692 0.80275,0.88689 1.40626,1.93675 1.79996,3.12738 0.39079,1.19062 0.5887,2.51354 0.5887,3.9325 v 3.81873 h -4.78684 v -3.39592 c 0,-1.084 -0.12436,-2.02565 -0.36513,-2.79665 z m 19.9816,19.43973 c 0,1.42346 -0.19923,2.74637 -0.59267,3.93065 -0.39211,1.19274 -0.99483,2.24472 -1.79387,3.12737 -0.80486,0.88265 -1.83833,1.57957 -3.07499,2.06905 -1.2401,0.48471 -2.71912,0.73289 -4.3979,0.73289 -1.68355,0 -3.15172,-0.24818 -4.36616,-0.73289 -1.2139,-0.49001 -2.23705,-1.1864 -3.03953,-2.06905 -0.79904,-0.88265 -1.39885,-1.93463 -1.78117,-3.12737 -0.37624,-1.18639 -0.56939,-2.50931 -0.56939,-3.93065 v -12.09754 h 4.78631 v 11.67474 c 0,1.08426 0.12304,2.02565 0.36513,2.79664 0.23892,0.76465 0.58341,1.39118 1.02552,1.86664 a 4.1256479,4.1256479 0 0 0 1.56528,1.0541 c 0.60113,0.22754 1.28905,0.34554 2.04629,0.34554 0.75935,0 1.45388,-0.11774 2.06692,-0.34528 a 4.0965437,4.0965437 0 0 0 1.58115,-1.05383 c 0.43868,-0.47546 0.78661,-1.10173 1.02659,-1.86664 0.24077,-0.77099 0.36591,-1.71238 0.36591,-2.79664 v -11.67474 h 4.78367 v 12.09754 h 0.003 z"
       id="path325" />
  </g>
</svg>
